<svg xmlns="http://www.w3.org/2000/svg" viewBox="0 0 32 32" width="32" height="32">
  <rect width="32" height="32" rx="6" fill="#141410"/>
  <g fill="none" stroke="#F2F2EC">
    <ellipse cx="16" cy="10" rx="10" ry="3.8" stroke-width="1.6"/>
    <line x1="6" y1="10" x2="6" y2="21" stroke-width="1.6"/>
    <line x1="26" y1="10" x2="26" y2="21" stroke-width="1.6"/>
    <path d="M6 21 C6 23.2 10 25.5 16 25.5 C22 25.5 26 23.2 26 21" stroke-width="1.6"/>
    <ellipse cx="16" cy="12" rx="5.5" ry="2" stroke-width="1.1"/>
    <line x1="10.5" y1="12" x2="10.5" y2="19" stroke-width="1.1"/>
    <line x1="21.5" y1="12" x2="21.5" y2="19" stroke-width="1.1"/>
    <path d="M10.5 19 C10.5 20.2 13 21.5 16 21.5 C19 21.5 21.5 20.2 21.5 19" stroke-width="1.1"/>
  </g>
  <ellipse cx="16" cy="12" rx="2.5" ry="1" fill="#F2F2EC"/>
</svg>
